
<svg xmlns="http://www.w3.org/2000/svg" viewBox="0 0 200 220" fill="none">
  <!-- Torch Base -->
  <path d="M100 140 L80 90 L120 90 Z" fill="#FFD700" />
  
  <!-- QR Code Section -->
  <rect x="85" y="70" width="30" height="30" fill="#FFD700" />
  <rect x="90" y="75" width="6" height="6" fill="#1A1F2C" />
  <rect x="104" y="75" width="6" height="6" fill="#1A1F2C" />
  <rect x="90" y="89" width="6" height="6" fill="#1A1F2C" />
  <rect x="96" y="83" width="8" height="2" fill="#1A1F2C" />
  <rect x="96" y="89" width="2" height="6" fill="#1A1F2C" />
  <rect x="104" y="89" width="6" height="6" fill="#1A1F2C" />
  
  <!-- Torch Plate -->
  <rect x="75" y="60" width="50" height="5" fill="#FFD700" />
  <rect x="80" y="55" width="40" height="5" fill="#FFD700" />
  
  <!-- Flames -->
  <path d="M90 40 Q95 20 100 35 Q105 15 110 40 Q115 25 112 45 Q109 50 100 45 Q91 50 88 45 Q85 25 90 40Z" fill="#FFD700" />
</svg>
